# xmcd
# 
# Track frame offsets:
#     225
#     12679
#     22288
#     31849
#     43949
#     55028
#     64509
#     74765
#     86863
#     95594
#     106325
#     117695
#     126749
#     134234
#     148121
#     156692
#     165429
#     172977
#     182007
#     193292
#     206272
#     215876
#     227860
#     237169
#     245816
#     254255
#     262346
#     269928
#     279760
#     293679
# 
# Disc length: 4053
# 
# Revision: 0
# Processed by: cddbd v1.5.2PL0 Copyright (c) Steve Scherf et al.
# Submitted via: fre:ac v1.0.17
# 
DISCID=f70fd21e
DTITLE=Buck Trent - My 3 Banjos
DYEAR=0
DGENRE=Country
TTITLE0=A Pair of Fives
TTITLE1=Rufus Thibdeaux
TTITLE2=Snowbird
TTITLE3=Nightcap
TTITLE4=Last Date
TTITLE5=Buckeye
TTITLE6=Banjoy
TTITLE7=Laura's Theme
TTITLE8=Java
TTITLE9=Jolly Ho
TTITLE10=Music Box Dancer
TTITLE11=Pinacolada
TTITLE12=Grand Father's Clock
TTITLE13=The Way I See You
TTITLE14=Stampede
TTITLE15=Banjo Buck
TTITLE16=Clover Bottom
TTITLE17=Flint Hill Special
TTITLE18=Banjo Auctioneer
TTITLE19=Until Dawn
TTITLE20=Wheels
TTITLE21=Dear Old Dixie
TTITLE22=Going Home
TTITLE23=Tijuana Taxi
TTITLE24=Flowing Five
TTITLE25=Wildwood Flower
TTITLE26=Poppin' Corn
TTITLE27=Trent's Tornado
TTITLE28=Farewell Blues
TTITLE29=Buckin' The Five
EXTD=
EXTT0=
EXTT1=
EXTT2=
EXTT3=
EXTT4=
EXTT5=
EXTT6=
EXTT7=
EXTT8=
EXTT9=
EXTT10=
EXTT11=
EXTT12=
EXTT13=
EXTT14=
EXTT15=
EXTT16=
EXTT17=
EXTT18=
EXTT19=
EXTT20=
EXTT21=
EXTT22=
EXTT23=
EXTT24=
EXTT25=
EXTT26=
EXTT27=
EXTT28=
EXTT29=
PLAYORDER=
